<svg id="visual" viewBox="0 0 960 540" width="960" height="540" xmlns="http://www.w3.org/2000/svg" xmlns:xlink="http://www.w3.org/1999/xlink" version="1.1"><path d="M0 366L40 341.5C80 317 160 268 240 251.8C320 235.7 400 252.3 480 289.5C560 326.7 640 384.3 720 406.3C800 428.3 880 414.7 920 407.8L960 401L960 0L920 0C880 0 800 0 720 0C640 0 560 0 480 0C400 0 320 0 240 0C160 0 80 0 40 0L0 0Z" fill="#a2345c"></path><path d="M0 330L40 314.7C80 299.3 160 268.7 240 250C320 231.3 400 224.7 480 218C560 211.3 640 204.7 720 218.5C800 232.3 880 266.7 920 283.8L960 301L960 0L920 0C880 0 800 0 720 0C640 0 560 0 480 0C400 0 320 0 240 0C160 0 80 0 40 0L0 0Z" fill="#b3466e"></path><path d="M0 211L40 206.8C80 202.7 160 194.3 240 172.8C320 151.3 400 116.7 480 94.8C560 73 640 64 720 80.3C800 96.7 880 138.3 920 159.2L960 180L960 0L920 0C880 0 800 0 720 0C640 0 560 0 480 0C400 0 320 0 240 0C160 0 80 0 40 0L0 0Z" fill="#c45880"></path></svg>